<?xml version="1.0" encoding="utf-8" standalone="no"?>
<!DOCTYPE svg PUBLIC "-//W3C//DTD SVG 1.1//EN"
  "http://www.w3.org/Graphics/SVG/1.1/DTD/svg11.dtd">
<!-- Created with matplotlib (http://matplotlib.org/) -->
<svg height="385pt" version="1.1" viewBox="0 0 784 385" width="784pt" xmlns="http://www.w3.org/2000/svg" xmlns:xlink="http://www.w3.org/1999/xlink">
 <defs>
  <style type="text/css">
*{stroke-linecap:butt;stroke-linejoin:round;}
  </style>
 </defs>
 <g id="figure_1">
  <g id="patch_1">
   <path d="
M0 385.277
L784.34 385.277
L784.34 0
L0 0
z
" style="fill:#ffffff;"/>
  </g>
  <g id="axes_1">
   <g id="patch_2">
    <path d="
M98.0426 327.485
L705.906 327.485
L705.906 38.5277
L98.0426 38.5277
z
" style="fill:#ffffff;"/>
   </g>
   <g id="line2d_1">
    <path clip-path="url(#p9e07894797)" d="
M232.896 176.698
L324.389 164.177
L377.909 161.319
L415.882 172.477
L445.336 162.77
L469.401 162.694
L489.749 175.291
L507.374 163.012
L522.921 164.946
L536.828 171.458
L549.409 163.52
L560.894 168.827
L571.459 168.873
L581.241 164.931
L590.348 173.449
L598.867 168.679
L606.869 167.914
L614.414 176.763
L621.55 169.504
L628.321 171.233
L634.761 176.911
L640.901 171.737
L646.769 174.284
L652.387 176.237
L657.775 173.585
L662.952 175.918
L667.934 176.289
L672.734 174.688
L677.366 177.389
L681.841 183.214
L686.169 184.797
L690.359 189.802
L694.421 204.601
L698.362 198.61
L702.188 199.929
L705.906 200.292" style="fill:none;stroke:#cc0000;stroke-linecap:square;"/>
   </g>
   <g id="matplotlib.axis_1">
    <g id="xtick_1">
     <g id="line2d_2">
      <defs>
       <path d="
M0 0
L0 8" id="m97620b41b4" style="stroke:#555753;stroke-width:0.5;"/>
      </defs>
      <g>
       <use style="fill:#555753;stroke:#555753;stroke-width:0.5;" x="98.0425531915" xlink:href="#m97620b41b4" y="327.485106383"/>
      </g>
     </g>
     <g id="line2d_3">
      <defs>
       <path d="
M0 0
L0 -8" id="md0e1ea1ce1" style="stroke:#555753;stroke-width:0.5;"/>
      </defs>
      <g>
       <use style="fill:#555753;stroke:#555753;stroke-width:0.5;" x="98.0425531915" xlink:href="#md0e1ea1ce1" y="38.5276595745"/>
      </g>
     </g>
     <g id="text_1">
      <!-- $\mathdefault{10^{-1}}$ -->
      <defs>
       <path d="
M5.42188 35.8906
L36.0781 35.8906
L36.0781 21.6875
L5.42188 21.6875
z
" id="BitstreamVeraSans-Bold-2d"/>
       <path d="
M11.7188 12.9844
L28.3281 12.9844
L28.3281 60.1094
L11.2812 56.5938
L11.2812 69.3906
L28.2188 72.9062
L46.0938 72.9062
L46.0938 12.9844
L62.7031 12.9844
L62.7031 0
L11.7188 0
z
" id="BitstreamVeraSans-Bold-31"/>
       <path d="
M46 36.5312
Q46 50.2031 43.4375 55.7812
Q40.875 61.375 34.8125 61.375
Q28.7656 61.375 26.1719 55.7812
Q23.5781 50.2031 23.5781 36.5312
Q23.5781 22.7031 26.1719 17.0312
Q28.7656 11.375 34.8125 11.375
Q40.8281 11.375 43.4062 17.0312
Q46 22.7031 46 36.5312
M64.7969 36.375
Q64.7969 18.2656 56.9844 8.42188
Q49.1719 -1.42188 34.8125 -1.42188
Q20.4062 -1.42188 12.5938 8.42188
Q4.78125 18.2656 4.78125 36.375
Q4.78125 54.5469 12.5938 64.375
Q20.4062 74.2188 34.8125 74.2188
Q49.1719 74.2188 56.9844 64.375
Q64.7969 54.5469 64.7969 36.375" id="BitstreamVeraSans-Bold-30"/>
      </defs>
      <g style="fill:#555753;" transform="translate(86.1425531915 348.005418883)scale(0.1 -0.1)">
       <use transform="translate(0.0 0.465625)" xlink:href="#BitstreamVeraSans-Bold-31"/>
       <use transform="translate(69.580078125 0.465625)" xlink:href="#BitstreamVeraSans-Bold-30"/>
       <use transform="translate(139.16015625 52.965625)scale(0.7)" xlink:href="#BitstreamVeraSans-Bold-2d"/>
       <use transform="translate(168.212890625 52.965625)scale(0.7)" xlink:href="#BitstreamVeraSans-Bold-31"/>
      </g>
     </g>
    </g>
    <g id="xtick_2">
     <g id="line2d_4">
      <g>
       <use style="fill:#555753;stroke:#555753;stroke-width:0.5;" x="401.974468085" xlink:href="#m97620b41b4" y="327.485106383"/>
      </g>
     </g>
     <g id="line2d_5">
      <g>
       <use style="fill:#555753;stroke:#555753;stroke-width:0.5;" x="401.974468085" xlink:href="#md0e1ea1ce1" y="38.5276595745"/>
      </g>
     </g>
     <g id="text_2">
      <!-- $\mathdefault{10^{0}}$ -->
      <g style="fill:#555753;" transform="translate(391.524468085 348.105418883)scale(0.1 -0.1)">
       <use transform="translate(0.0 0.546875)" xlink:href="#BitstreamVeraSans-Bold-31"/>
       <use transform="translate(69.580078125 0.546875)" xlink:href="#BitstreamVeraSans-Bold-30"/>
       <use transform="translate(139.16015625 53.046875)scale(0.7)" xlink:href="#BitstreamVeraSans-Bold-30"/>
      </g>
     </g>
    </g>
    <g id="xtick_3">
     <g id="line2d_6">
      <g>
       <use style="fill:#555753;stroke:#555753;stroke-width:0.5;" x="705.906382979" xlink:href="#m97620b41b4" y="327.485106383"/>
      </g>
     </g>
     <g id="line2d_7">
      <g>
       <use style="fill:#555753;stroke:#555753;stroke-width:0.5;" x="705.906382979" xlink:href="#md0e1ea1ce1" y="38.5276595745"/>
      </g>
     </g>
     <g id="text_3">
      <!-- $\mathdefault{10^{1}}$ -->
      <g style="fill:#555753;" transform="translate(695.456382979 348.005418883)scale(0.1 -0.1)">
       <use transform="translate(0.0 0.465625)" xlink:href="#BitstreamVeraSans-Bold-31"/>
       <use transform="translate(69.580078125 0.465625)" xlink:href="#BitstreamVeraSans-Bold-30"/>
       <use transform="translate(139.16015625 52.965625)scale(0.7)" xlink:href="#BitstreamVeraSans-Bold-31"/>
      </g>
     </g>
    </g>
    <g id="xtick_4">
     <g id="line2d_8">
      <defs>
       <path d="
M0 0
L0 4" id="m293281a665" style="stroke:#555753;stroke-width:0.5;"/>
      </defs>
      <g>
       <use style="fill:#555753;stroke:#555753;stroke-width:0.5;" x="189.535176214" xlink:href="#m293281a665" y="327.485106383"/>
      </g>
     </g>
     <g id="line2d_9">
      <defs>
       <path d="
M0 0
L0 -4" id="m2eebe4aacb" style="stroke:#555753;stroke-width:0.5;"/>
      </defs>
      <g>
       <use style="fill:#555753;stroke:#555753;stroke-width:0.5;" x="189.535176214" xlink:href="#m2eebe4aacb" y="38.5276595745"/>
      </g>
     </g>
    </g>
    <g id="xtick_5">
     <g id="line2d_10">
      <g>
       <use style="fill:#555753;stroke:#555753;stroke-width:0.5;" x="243.054929775" xlink:href="#m293281a665" y="327.485106383"/>
      </g>
     </g>
     <g id="line2d_11">
      <g>
       <use style="fill:#555753;stroke:#555753;stroke-width:0.5;" x="243.054929775" xlink:href="#m2eebe4aacb" y="38.5276595745"/>
      </g>
     </g>
    </g>
    <g id="xtick_6">
     <g id="line2d_12">
      <g>
       <use style="fill:#555753;stroke:#555753;stroke-width:0.5;" x="281.027799237" xlink:href="#m293281a665" y="327.485106383"/>
      </g>
     </g>
     <g id="line2d_13">
      <g>
       <use style="fill:#555753;stroke:#555753;stroke-width:0.5;" x="281.027799237" xlink:href="#m2eebe4aacb" y="38.5276595745"/>
      </g>
     </g>
    </g>
    <g id="xtick_7">
     <g id="line2d_14">
      <g>
       <use style="fill:#555753;stroke:#555753;stroke-width:0.5;" x="310.481845063" xlink:href="#m293281a665" y="327.485106383"/>
      </g>
     </g>
     <g id="line2d_15">
      <g>
       <use style="fill:#555753;stroke:#555753;stroke-width:0.5;" x="310.481845063" xlink:href="#m2eebe4aacb" y="38.5276595745"/>
      </g>
     </g>
    </g>
    <g id="xtick_8">
     <g id="line2d_16">
      <g>
       <use style="fill:#555753;stroke:#555753;stroke-width:0.5;" x="334.547552797" xlink:href="#m293281a665" y="327.485106383"/>
      </g>
     </g>
     <g id="line2d_17">
      <g>
       <use style="fill:#555753;stroke:#555753;stroke-width:0.5;" x="334.547552797" xlink:href="#m2eebe4aacb" y="38.5276595745"/>
      </g>
     </g>
    </g>
    <g id="xtick_9">
     <g id="line2d_18">
      <g>
       <use style="fill:#555753;stroke:#555753;stroke-width:0.5;" x="354.894818766" xlink:href="#m293281a665" y="327.485106383"/>
      </g>
     </g>
     <g id="line2d_19">
      <g>
       <use style="fill:#555753;stroke:#555753;stroke-width:0.5;" x="354.894818766" xlink:href="#m2eebe4aacb" y="38.5276595745"/>
      </g>
     </g>
    </g>
    <g id="xtick_10">
     <g id="line2d_20">
      <g>
       <use style="fill:#555753;stroke:#555753;stroke-width:0.5;" x="372.520422259" xlink:href="#m293281a665" y="327.485106383"/>
      </g>
     </g>
     <g id="line2d_21">
      <g>
       <use style="fill:#555753;stroke:#555753;stroke-width:0.5;" x="372.520422259" xlink:href="#m2eebe4aacb" y="38.5276595745"/>
      </g>
     </g>
    </g>
    <g id="xtick_11">
     <g id="line2d_22">
      <g>
       <use style="fill:#555753;stroke:#555753;stroke-width:0.5;" x="388.067306358" xlink:href="#m293281a665" y="327.485106383"/>
      </g>
     </g>
     <g id="line2d_23">
      <g>
       <use style="fill:#555753;stroke:#555753;stroke-width:0.5;" x="388.067306358" xlink:href="#m2eebe4aacb" y="38.5276595745"/>
      </g>
     </g>
    </g>
    <g id="xtick_12">
     <g id="line2d_24">
      <g>
       <use style="fill:#555753;stroke:#555753;stroke-width:0.5;" x="493.467091108" xlink:href="#m293281a665" y="327.485106383"/>
      </g>
     </g>
     <g id="line2d_25">
      <g>
       <use style="fill:#555753;stroke:#555753;stroke-width:0.5;" x="493.467091108" xlink:href="#m2eebe4aacb" y="38.5276595745"/>
      </g>
     </g>
    </g>
    <g id="xtick_13">
     <g id="line2d_26">
      <g>
       <use style="fill:#555753;stroke:#555753;stroke-width:0.5;" x="546.986844668" xlink:href="#m293281a665" y="327.485106383"/>
      </g>
     </g>
     <g id="line2d_27">
      <g>
       <use style="fill:#555753;stroke:#555753;stroke-width:0.5;" x="546.986844668" xlink:href="#m2eebe4aacb" y="38.5276595745"/>
      </g>
     </g>
    </g>
    <g id="xtick_14">
     <g id="line2d_28">
      <g>
       <use style="fill:#555753;stroke:#555753;stroke-width:0.5;" x="584.95971413" xlink:href="#m293281a665" y="327.485106383"/>
      </g>
     </g>
     <g id="line2d_29">
      <g>
       <use style="fill:#555753;stroke:#555753;stroke-width:0.5;" x="584.95971413" xlink:href="#m2eebe4aacb" y="38.5276595745"/>
      </g>
     </g>
    </g>
    <g id="xtick_15">
     <g id="line2d_30">
      <g>
       <use style="fill:#555753;stroke:#555753;stroke-width:0.5;" x="614.413759956" xlink:href="#m293281a665" y="327.485106383"/>
      </g>
     </g>
     <g id="line2d_31">
      <g>
       <use style="fill:#555753;stroke:#555753;stroke-width:0.5;" x="614.413759956" xlink:href="#m2eebe4aacb" y="38.5276595745"/>
      </g>
     </g>
    </g>
    <g id="xtick_16">
     <g id="line2d_32">
      <g>
       <use style="fill:#555753;stroke:#555753;stroke-width:0.5;" x="638.479467691" xlink:href="#m293281a665" y="327.485106383"/>
      </g>
     </g>
     <g id="line2d_33">
      <g>
       <use style="fill:#555753;stroke:#555753;stroke-width:0.5;" x="638.479467691" xlink:href="#m2eebe4aacb" y="38.5276595745"/>
      </g>
     </g>
    </g>
    <g id="xtick_17">
     <g id="line2d_34">
      <g>
       <use style="fill:#555753;stroke:#555753;stroke-width:0.5;" x="658.826733659" xlink:href="#m293281a665" y="327.485106383"/>
      </g>
     </g>
     <g id="line2d_35">
      <g>
       <use style="fill:#555753;stroke:#555753;stroke-width:0.5;" x="658.826733659" xlink:href="#m2eebe4aacb" y="38.5276595745"/>
      </g>
     </g>
    </g>
    <g id="xtick_18">
     <g id="line2d_36">
      <g>
       <use style="fill:#555753;stroke:#555753;stroke-width:0.5;" x="676.452337153" xlink:href="#m293281a665" y="327.485106383"/>
      </g>
     </g>
     <g id="line2d_37">
      <g>
       <use style="fill:#555753;stroke:#555753;stroke-width:0.5;" x="676.452337153" xlink:href="#m2eebe4aacb" y="38.5276595745"/>
      </g>
     </g>
    </g>
    <g id="xtick_19">
     <g id="line2d_38">
      <g>
       <use style="fill:#555753;stroke:#555753;stroke-width:0.5;" x="691.999221252" xlink:href="#m293281a665" y="327.485106383"/>
      </g>
     </g>
     <g id="line2d_39">
      <g>
       <use style="fill:#555753;stroke:#555753;stroke-width:0.5;" x="691.999221252" xlink:href="#m2eebe4aacb" y="38.5276595745"/>
      </g>
     </g>
    </g>
    <g id="text_4">
     <!-- Frequency [Hz] -->
     <defs>
      <path d="
M1.21875 54.6875
L18.7031 54.6875
L33.4062 17.5781
L45.9062 54.6875
L63.375 54.6875
L40.375 -5.17188
Q36.9219 -14.3125 32.2969 -17.9375
Q27.6875 -21.5781 20.125 -21.5781
L10.0156 -21.5781
L10.0156 -10.1094
L15.4844 -10.1094
Q19.9219 -10.1094 21.9375 -8.6875
Q23.9688 -7.28125 25.0938 -3.60938
L25.5938 -2.09375
z
" id="BitstreamVeraSans-Bold-79"/>
      <path id="BitstreamVeraSans-Bold-20"/>
      <path d="
M9.1875 72.9062
L59.9062 72.9062
L59.9062 58.6875
L27.9844 58.6875
L27.9844 45.125
L58.0156 45.125
L58.0156 30.9062
L27.9844 30.9062
L27.9844 0
L9.1875 0
z
" id="BitstreamVeraSans-Bold-46"/>
      <path d="
M34.0781 43.3125
Q28.5156 43.3125 25.5625 39.2031
Q22.6094 35.1094 22.6094 27.2969
Q22.6094 19.4844 25.5625 15.375
Q28.5156 11.2812 34.0781 11.2812
Q39.7031 11.2812 42.6562 15.375
Q45.6094 19.4844 45.6094 27.2969
Q45.6094 35.1094 42.6562 39.2031
Q39.7031 43.3125 34.0781 43.3125
M45.6094 7.90625
Q42 3.07812 37.6406 0.828125
Q33.2969 -1.42188 27.5938 -1.42188
Q17.4844 -1.42188 10.9844 6.60938
Q4.5 14.6562 4.5 27.2969
Q4.5 39.9375 10.9844 47.9219
Q17.4844 55.9062 27.5938 55.9062
Q33.2969 55.9062 37.6406 53.6562
Q42 51.4219 45.6094 46.5781
L45.6094 54.6875
L63.1875 54.6875
L63.1875 -20.7969
L45.6094 -20.7969
z
" id="BitstreamVeraSans-Bold-71"/>
      <path d="
M52.5938 52.9844
L52.5938 38.7188
Q49.0312 41.1562 45.4375 42.3281
Q41.8438 43.5 37.9844 43.5
Q30.6719 43.5 26.5938 39.2344
Q22.5156 34.9688 22.5156 27.2969
Q22.5156 19.625 26.5938 15.3438
Q30.6719 11.0781 37.9844 11.0781
Q42.0938 11.0781 45.7812 12.2969
Q49.4688 13.5312 52.5938 15.9219
L52.5938 1.60938
Q48.4844 0.09375 44.2656 -0.65625
Q40.0469 -1.42188 35.7969 -1.42188
Q21 -1.42188 12.6406 6.17188
Q4.29688 13.7656 4.29688 27.2969
Q4.29688 40.8281 12.6406 48.4062
Q21 56 35.7969 56
Q40.0938 56 44.2656 55.25
Q48.4375 54.5 52.5938 52.9844" id="BitstreamVeraSans-Bold-63"/>
      <path d="
M49.0312 39.7969
Q46.7344 40.875 44.4531 41.375
Q42.1875 41.8906 39.8906 41.8906
Q33.1562 41.8906 29.5156 37.5625
Q25.875 33.25 25.875 25.2031
L25.875 0
L8.40625 0
L8.40625 54.6875
L25.875 54.6875
L25.875 45.7031
Q29.25 51.0781 33.6094 53.5312
Q37.9844 56 44.0938 56
Q44.9688 56 45.9844 55.9219
Q47.0156 55.8594 48.9688 55.6094
z
" id="BitstreamVeraSans-Bold-72"/>
      <path d="
M7.8125 21.2969
L7.8125 54.6875
L25.3906 54.6875
L25.3906 49.2188
Q25.3906 44.7812 25.3438 38.0625
Q25.2969 31.3438 25.2969 29.1094
Q25.2969 22.5156 25.6406 19.6094
Q25.9844 16.7031 26.8125 15.375
Q27.875 13.6719 29.6094 12.7344
Q31.3438 11.8125 33.5938 11.8125
Q39.0625 11.8125 42.1875 16.0156
Q45.3125 20.2188 45.3125 27.6875
L45.3125 54.6875
L62.7969 54.6875
L62.7969 0
L45.3125 0
L45.3125 7.90625
Q41.3594 3.125 36.9375 0.84375
Q32.5156 -1.42188 27.2031 -1.42188
Q17.7188 -1.42188 12.7656 4.39062
Q7.8125 10.2031 7.8125 21.2969" id="BitstreamVeraSans-Bold-75"/>
      <path d="
M62.9844 27.4844
L62.9844 22.5156
L22.125 22.5156
Q22.75 16.3594 26.5625 13.2812
Q30.375 10.2031 37.2031 10.2031
Q42.7188 10.2031 48.5 11.8438
Q54.2969 13.4844 60.4062 16.7969
L60.4062 3.32812
Q54.2031 0.984375 48 -0.21875
Q41.7969 -1.42188 35.5938 -1.42188
Q20.75 -1.42188 12.5156 6.125
Q4.29688 13.6719 4.29688 27.2969
Q4.29688 40.6719 12.375 48.3281
Q20.4531 56 34.625 56
Q47.5156 56 55.25 48.2344
Q62.9844 40.4844 62.9844 27.4844
M45.0156 33.2969
Q45.0156 38.2812 42.1094 41.3281
Q39.2031 44.3906 34.5156 44.3906
Q29.4375 44.3906 26.2656 41.5312
Q23.0938 38.6719 22.3125 33.2969
z
" id="BitstreamVeraSans-Bold-65"/>
      <path d="
M9.1875 72.9062
L27.9844 72.9062
L27.9844 45.125
L55.7188 45.125
L55.7188 72.9062
L74.5156 72.9062
L74.5156 0
L55.7188 0
L55.7188 30.9062
L27.9844 30.9062
L27.9844 0
L9.1875 0
z
" id="BitstreamVeraSans-Bold-48"/>
      <path d="
M5.71875 54.6875
L53.4219 54.6875
L53.4219 42.4844
L24.6094 12.5
L53.4219 12.5
L53.4219 0
L4.5 0
L4.5 12.2031
L33.2969 42.1875
L5.71875 42.1875
z
" id="BitstreamVeraSans-Bold-7a"/>
      <path d="
M37.1094 -13.1875
L6.78125 -13.1875
L6.78125 -2.20312
L20.5156 -2.20312
L20.5156 64.9844
L6.78125 64.9844
L6.78125 75.9844
L37.1094 75.9844
z
" id="BitstreamVeraSans-Bold-5d"/>
      <path d="
M8.59375 75.9844
L38.9219 75.9844
L38.9219 64.9844
L25.2031 64.9844
L25.2031 -2.20312
L38.9219 -2.20312
L38.9219 -13.1875
L8.59375 -13.1875
z
" id="BitstreamVeraSans-Bold-5b"/>
      <path d="
M63.375 33.2969
L63.375 0
L45.7969 0
L45.7969 5.42188
L45.7969 25.4844
Q45.7969 32.5625 45.4844 35.25
Q45.1719 37.9375 44.3906 39.2031
Q43.3594 40.9219 41.5938 41.875
Q39.8438 42.8281 37.5938 42.8281
Q32.125 42.8281 29 38.5938
Q25.875 34.375 25.875 26.9062
L25.875 0
L8.40625 0
L8.40625 54.6875
L25.875 54.6875
L25.875 46.6875
Q29.8281 51.4688 34.2656 53.7344
Q38.7188 56 44.0938 56
Q53.5625 56 58.4688 50.1875
Q63.375 44.3906 63.375 33.2969" id="BitstreamVeraSans-Bold-6e"/>
     </defs>
     <g style="fill:#555753;" transform="translate(359.732280585 367.783543883)scale(0.1 -0.1)">
      <use xlink:href="#BitstreamVeraSans-Bold-46"/>
      <use x="61.935546875" xlink:href="#BitstreamVeraSans-Bold-72"/>
      <use x="111.251953125" xlink:href="#BitstreamVeraSans-Bold-65"/>
      <use x="179.07421875" xlink:href="#BitstreamVeraSans-Bold-71"/>
      <use x="250.65625" xlink:href="#BitstreamVeraSans-Bold-75"/>
      <use x="321.84765625" xlink:href="#BitstreamVeraSans-Bold-65"/>
      <use x="389.669921875" xlink:href="#BitstreamVeraSans-Bold-6e"/>
      <use x="460.861328125" xlink:href="#BitstreamVeraSans-Bold-63"/>
      <use x="520.138671875" xlink:href="#BitstreamVeraSans-Bold-79"/>
      <use x="585.32421875" xlink:href="#BitstreamVeraSans-Bold-20"/>
      <use x="620.138671875" xlink:href="#BitstreamVeraSans-Bold-5b"/>
      <use x="665.841796875" xlink:href="#BitstreamVeraSans-Bold-48"/>
      <use x="749.533203125" xlink:href="#BitstreamVeraSans-Bold-7a"/>
      <use x="807.736328125" xlink:href="#BitstreamVeraSans-Bold-5d"/>
     </g>
    </g>
   </g>
   <g id="matplotlib.axis_2">
    <g id="ytick_1">
     <g id="line2d_40">
      <defs>
       <path d="
M0 0
L-8 0" id="m362ef1c355" style="stroke:#555753;stroke-width:0.5;"/>
      </defs>
      <g>
       <use style="fill:#555753;stroke:#555753;stroke-width:0.5;" x="98.0425531915" xlink:href="#m362ef1c355" y="319.477144933"/>
      </g>
     </g>
     <g id="line2d_41">
      <defs>
       <path d="
M0 0
L8 0" id="m6c5fdd9bd2" style="stroke:#555753;stroke-width:0.5;"/>
      </defs>
      <g>
       <use style="fill:#555753;stroke:#555753;stroke-width:0.5;" x="705.906382979" xlink:href="#m6c5fdd9bd2" y="319.477144933"/>
      </g>
     </g>
     <g id="text_5">
      <!-- $\mathdefault{10^{-15}}$ -->
      <defs>
       <path d="
M10.5938 72.9062
L57.3281 72.9062
L57.3281 59.0781
L25.5938 59.0781
L25.5938 47.7969
Q27.7344 48.3906 29.9062 48.7031
Q32.0781 49.0312 34.4219 49.0312
Q47.75 49.0312 55.1719 42.3594
Q62.5938 35.6875 62.5938 23.7812
Q62.5938 11.9688 54.5156 5.26562
Q46.4375 -1.42188 32.0781 -1.42188
Q25.875 -1.42188 19.7969 -0.21875
Q13.7188 0.984375 7.71875 3.42188
L7.71875 18.2188
Q13.6719 14.7969 19.0156 13.0781
Q24.3594 11.375 29.1094 11.375
Q35.9375 11.375 39.8594 14.7188
Q43.7969 18.0625 43.7969 23.7812
Q43.7969 29.5469 39.8594 32.8594
Q35.9375 36.1875 29.1094 36.1875
Q25.0469 36.1875 20.4531 35.125
Q15.875 34.0781 10.5938 31.8906
z
" id="BitstreamVeraSans-Bold-35"/>
      </defs>
      <g style="fill:#555753;" transform="translate(57.3425531915 322.697457433)scale(0.1 -0.1)">
       <use transform="translate(0.0 0.465625)" xlink:href="#BitstreamVeraSans-Bold-31"/>
       <use transform="translate(69.580078125 0.465625)" xlink:href="#BitstreamVeraSans-Bold-30"/>
       <use transform="translate(139.16015625 52.965625)scale(0.7)" xlink:href="#BitstreamVeraSans-Bold-2d"/>
       <use transform="translate(168.212890625 52.965625)scale(0.7)" xlink:href="#BitstreamVeraSans-Bold-31"/>
       <use transform="translate(216.918945312 52.965625)scale(0.7)" xlink:href="#BitstreamVeraSans-Bold-35"/>
      </g>
     </g>
    </g>
    <g id="ytick_2">
     <g id="line2d_42">
      <g>
       <use style="fill:#555753;stroke:#555753;stroke-width:0.5;" x="98.0425531915" xlink:href="#m362ef1c355" y="300.348756447"/>
      </g>
     </g>
     <g id="line2d_43">
      <g>
       <use style="fill:#555753;stroke:#555753;stroke-width:0.5;" x="705.906382979" xlink:href="#m6c5fdd9bd2" y="300.348756447"/>
      </g>
     </g>
     <g id="text_6">
      <!-- $\mathdefault{10^{-14}}$ -->
      <defs>
       <path d="
M36.8125 57.4219
L16.2188 26.9062
L36.8125 26.9062
z

M33.6875 72.9062
L54.5938 72.9062
L54.5938 26.9062
L64.9844 26.9062
L64.9844 13.2812
L54.5938 13.2812
L54.5938 0
L36.8125 0
L36.8125 13.2812
L4.5 13.2812
L4.5 29.3906
z
" id="BitstreamVeraSans-Bold-34"/>
      </defs>
      <g style="fill:#555753;" transform="translate(57.3425531915 303.569068947)scale(0.1 -0.1)">
       <use transform="translate(0.0 0.465625)" xlink:href="#BitstreamVeraSans-Bold-31"/>
       <use transform="translate(69.580078125 0.465625)" xlink:href="#BitstreamVeraSans-Bold-30"/>
       <use transform="translate(139.16015625 52.965625)scale(0.7)" xlink:href="#BitstreamVeraSans-Bold-2d"/>
       <use transform="translate(168.212890625 52.965625)scale(0.7)" xlink:href="#BitstreamVeraSans-Bold-31"/>
       <use transform="translate(216.918945312 52.965625)scale(0.7)" xlink:href="#BitstreamVeraSans-Bold-34"/>
      </g>
     </g>
    </g>
    <g id="ytick_3">
     <g id="line2d_44">
      <g>
       <use style="fill:#555753;stroke:#555753;stroke-width:0.5;" x="98.0425531915" xlink:href="#m362ef1c355" y="281.220367961"/>
      </g>
     </g>
     <g id="line2d_45">
      <g>
       <use style="fill:#555753;stroke:#555753;stroke-width:0.5;" x="705.906382979" xlink:href="#m6c5fdd9bd2" y="281.220367961"/>
      </g>
     </g>
     <g id="text_7">
      <!-- $\mathdefault{10^{-13}}$ -->
      <defs>
       <path d="
M46.5781 39.3125
Q53.9531 37.4062 57.7812 32.6875
Q61.625 27.9844 61.625 20.7031
Q61.625 9.85938 53.3125 4.21875
Q45.0156 -1.42188 29.1094 -1.42188
Q23.4844 -1.42188 17.8438 -0.515625
Q12.2031 0.390625 6.6875 2.20312
L6.6875 16.7031
Q11.9688 14.0625 17.1562 12.7188
Q22.3594 11.375 27.3906 11.375
Q34.8594 11.375 38.8438 13.9531
Q42.8281 16.5469 42.8281 21.3906
Q42.8281 26.375 38.75 28.9375
Q34.6719 31.5 26.7031 31.5
L19.1875 31.5
L19.1875 43.6094
L27.0938 43.6094
Q34.1875 43.6094 37.6406 45.8281
Q41.1094 48.0469 41.1094 52.5938
Q41.1094 56.7812 37.7344 59.0781
Q34.375 61.375 28.2188 61.375
Q23.6875 61.375 19.0469 60.3438
Q14.4062 59.3281 9.8125 57.3281
L9.8125 71.0938
Q15.375 72.6562 20.8438 73.4375
Q26.3125 74.2188 31.5938 74.2188
Q45.7969 74.2188 52.8438 69.5469
Q59.9062 64.8906 59.9062 55.5156
Q59.9062 49.125 56.5312 45.0469
Q53.1719 40.9688 46.5781 39.3125" id="BitstreamVeraSans-Bold-33"/>
      </defs>
      <g style="fill:#555753;" transform="translate(57.3425531915 284.490680461)scale(0.1 -0.1)">
       <use transform="translate(0.0 0.546875)" xlink:href="#BitstreamVeraSans-Bold-31"/>
       <use transform="translate(69.580078125 0.546875)" xlink:href="#BitstreamVeraSans-Bold-30"/>
       <use transform="translate(139.16015625 53.046875)scale(0.7)" xlink:href="#BitstreamVeraSans-Bold-2d"/>
       <use transform="translate(168.212890625 53.046875)scale(0.7)" xlink:href="#BitstreamVeraSans-Bold-31"/>
       <use transform="translate(216.918945312 53.046875)scale(0.7)" xlink:href="#BitstreamVeraSans-Bold-33"/>
      </g>
     </g>
    </g>
    <g id="ytick_4">
     <g id="line2d_46">
      <g>
       <use style="fill:#555753;stroke:#555753;stroke-width:0.5;" x="98.0425531915" xlink:href="#m362ef1c355" y="262.091979475"/>
      </g>
     </g>
     <g id="line2d_47">
      <g>
       <use style="fill:#555753;stroke:#555753;stroke-width:0.5;" x="705.906382979" xlink:href="#m6c5fdd9bd2" y="262.091979475"/>
      </g>
     </g>
     <g id="text_8">
      <!-- $\mathdefault{10^{-12}}$ -->
      <defs>
       <path d="
M28.8125 13.8125
L60.8906 13.8125
L60.8906 0
L7.90625 0
L7.90625 13.8125
L34.5156 37.3125
Q38.0938 40.5312 39.7969 43.6094
Q41.5 46.6875 41.5 50
Q41.5 55.125 38.0625 58.25
Q34.625 61.375 28.9062 61.375
Q24.5156 61.375 19.2812 59.5
Q14.0625 57.625 8.10938 53.9062
L8.10938 69.9219
Q14.4531 72.0156 20.6562 73.1094
Q26.8594 74.2188 32.8125 74.2188
Q45.9062 74.2188 53.1562 68.4531
Q60.4062 62.7031 60.4062 52.3906
Q60.4062 46.4375 57.3281 41.2812
Q54.25 36.1406 44.3906 27.4844
z
" id="BitstreamVeraSans-Bold-32"/>
      </defs>
      <g style="fill:#555753;" transform="translate(57.3425531915 265.362291975)scale(0.1 -0.1)">
       <use transform="translate(0.0 0.546875)" xlink:href="#BitstreamVeraSans-Bold-31"/>
       <use transform="translate(69.580078125 0.546875)" xlink:href="#BitstreamVeraSans-Bold-30"/>
       <use transform="translate(139.16015625 53.046875)scale(0.7)" xlink:href="#BitstreamVeraSans-Bold-2d"/>
       <use transform="translate(168.212890625 53.046875)scale(0.7)" xlink:href="#BitstreamVeraSans-Bold-31"/>
       <use transform="translate(216.918945312 53.046875)scale(0.7)" xlink:href="#BitstreamVeraSans-Bold-32"/>
      </g>
     </g>
    </g>
    <g id="ytick_5">
     <g id="line2d_48">
      <g>
       <use style="fill:#555753;stroke:#555753;stroke-width:0.5;" x="98.0425531915" xlink:href="#m362ef1c355" y="242.963590989"/>
      </g>
     </g>
     <g id="line2d_49">
      <g>
       <use style="fill:#555753;stroke:#555753;stroke-width:0.5;" x="705.906382979" xlink:href="#m6c5fdd9bd2" y="242.963590989"/>
      </g>
     </g>
     <g id="text_9">
      <!-- $\mathdefault{10^{-11}}$ -->
      <g style="fill:#555753;" transform="translate(57.3425531915 246.183903489)scale(0.1 -0.1)">
       <use transform="translate(0.0 0.465625)" xlink:href="#BitstreamVeraSans-Bold-31"/>
       <use transform="translate(69.580078125 0.465625)" xlink:href="#BitstreamVeraSans-Bold-30"/>
       <use transform="translate(139.16015625 52.965625)scale(0.7)" xlink:href="#BitstreamVeraSans-Bold-2d"/>
       <use transform="translate(168.212890625 52.965625)scale(0.7)" xlink:href="#BitstreamVeraSans-Bold-31"/>
       <use transform="translate(216.918945312 52.965625)scale(0.7)" xlink:href="#BitstreamVeraSans-Bold-31"/>
      </g>
     </g>
    </g>
    <g id="ytick_6">
     <g id="line2d_50">
      <g>
       <use style="fill:#555753;stroke:#555753;stroke-width:0.5;" x="98.0425531915" xlink:href="#m362ef1c355" y="223.835202503"/>
      </g>
     </g>
     <g id="line2d_51">
      <g>
       <use style="fill:#555753;stroke:#555753;stroke-width:0.5;" x="705.906382979" xlink:href="#m6c5fdd9bd2" y="223.835202503"/>
      </g>
     </g>
     <g id="text_10">
      <!-- $\mathdefault{10^{-10}}$ -->
      <g style="fill:#555753;" transform="translate(57.3425531915 227.105515003)scale(0.1 -0.1)">
       <use transform="translate(0.0 0.546875)" xlink:href="#BitstreamVeraSans-Bold-31"/>
       <use transform="translate(69.580078125 0.546875)" xlink:href="#BitstreamVeraSans-Bold-30"/>
       <use transform="translate(139.16015625 53.046875)scale(0.7)" xlink:href="#BitstreamVeraSans-Bold-2d"/>
       <use transform="translate(168.212890625 53.046875)scale(0.7)" xlink:href="#BitstreamVeraSans-Bold-31"/>
       <use transform="translate(216.918945312 53.046875)scale(0.7)" xlink:href="#BitstreamVeraSans-Bold-30"/>
      </g>
     </g>
    </g>
    <g id="ytick_7">
     <g id="line2d_52">
      <g>
       <use style="fill:#555753;stroke:#555753;stroke-width:0.5;" x="98.0425531915" xlink:href="#m362ef1c355" y="204.706814017"/>
      </g>
     </g>
     <g id="line2d_53">
      <g>
       <use style="fill:#555753;stroke:#555753;stroke-width:0.5;" x="705.906382979" xlink:href="#m6c5fdd9bd2" y="204.706814017"/>
      </g>
     </g>
     <g id="text_11">
      <!-- $\mathdefault{10^{-9}}$ -->
      <defs>
       <path d="
M10.0156 1.60938
L10.0156 15.0938
Q14.5 12.9844 18.5938 11.9375
Q22.7031 10.8906 26.7031 10.8906
Q35.1094 10.8906 39.7969 15.5469
Q44.4844 20.2188 45.3125 29.3906
Q42 26.9531 38.2344 25.7344
Q34.4688 24.5156 30.0781 24.5156
Q18.8906 24.5156 12.0312 31.0312
Q5.17188 37.5469 5.17188 48.1875
Q5.17188 59.9688 12.8125 67.0469
Q20.4531 74.125 33.2969 74.125
Q47.5625 74.125 55.375 64.5
Q63.1875 54.8906 63.1875 37.3125
Q63.1875 19.2344 54.0469 8.90625
Q44.9219 -1.42188 29 -1.42188
Q23.875 -1.42188 19.1875 -0.65625
Q14.5 0.09375 10.0156 1.60938
M33.2031 36.7188
Q38.1406 36.7188 40.625 39.9062
Q43.1094 43.1094 43.1094 49.5156
Q43.1094 55.8594 40.625 59.0781
Q38.1406 62.3125 33.2031 62.3125
Q28.2656 62.3125 25.7812 59.0781
Q23.2969 55.8594 23.2969 49.5156
Q23.2969 43.1094 25.7812 39.9062
Q28.2656 36.7188 33.2031 36.7188" id="BitstreamVeraSans-Bold-39"/>
      </defs>
      <g style="fill:#555753;" transform="translate(62.2425531915 207.977126517)scale(0.1 -0.1)">
       <use transform="translate(0.0 0.6125)" xlink:href="#BitstreamVeraSans-Bold-31"/>
       <use transform="translate(69.580078125 0.6125)" xlink:href="#BitstreamVeraSans-Bold-30"/>
       <use transform="translate(139.16015625 53.1125)scale(0.7)" xlink:href="#BitstreamVeraSans-Bold-2d"/>
       <use transform="translate(168.212890625 53.1125)scale(0.7)" xlink:href="#BitstreamVeraSans-Bold-39"/>
      </g>
     </g>
    </g>
    <g id="ytick_8">
     <g id="line2d_54">
      <g>
       <use style="fill:#555753;stroke:#555753;stroke-width:0.5;" x="98.0425531915" xlink:href="#m362ef1c355" y="185.578425531"/>
      </g>
     </g>
     <g id="line2d_55">
      <g>
       <use style="fill:#555753;stroke:#555753;stroke-width:0.5;" x="705.906382979" xlink:href="#m6c5fdd9bd2" y="185.578425531"/>
      </g>
     </g>
     <g id="text_12">
      <!-- $\mathdefault{10^{-8}}$ -->
      <defs>
       <path d="
M34.8125 32.625
Q29.5469 32.625 26.7031 29.7344
Q23.875 26.8594 23.875 21.4844
Q23.875 16.1094 26.7031 13.25
Q29.5469 10.4062 34.8125 10.4062
Q40.0469 10.4062 42.8281 13.25
Q45.6094 16.1094 45.6094 21.4844
Q45.6094 26.9062 42.8281 29.7656
Q40.0469 32.625 34.8125 32.625
M21.0938 38.8125
Q14.4531 40.8281 11.0781 44.9688
Q7.71875 49.125 7.71875 55.3281
Q7.71875 64.5469 14.5938 69.375
Q21.4844 74.2188 34.8125 74.2188
Q48.0469 74.2188 54.9219 69.4062
Q61.8125 64.5938 61.8125 55.3281
Q61.8125 49.125 58.4219 44.9688
Q55.0312 40.8281 48.3906 38.8125
Q55.8125 36.7656 59.5938 32.1562
Q63.375 27.5469 63.375 20.5156
Q63.375 9.67188 56.1719 4.125
Q48.9688 -1.42188 34.8125 -1.42188
Q20.6094 -1.42188 13.3594 4.125
Q6.10938 9.67188 6.10938 20.5156
Q6.10938 27.5469 9.89062 32.1562
Q13.6719 36.7656 21.0938 38.8125
M25.4844 53.4219
Q25.4844 49.0781 27.9062 46.7344
Q30.3281 44.3906 34.8125 44.3906
Q39.2031 44.3906 41.5938 46.7344
Q44 49.0781 44 53.4219
Q44 57.7656 41.5938 60.0781
Q39.2031 62.4062 34.8125 62.4062
Q30.3281 62.4062 27.9062 60.0625
Q25.4844 57.7188 25.4844 53.4219" id="BitstreamVeraSans-Bold-38"/>
      </defs>
      <g style="fill:#555753;" transform="translate(62.2425531915 188.848738031)scale(0.1 -0.1)">
       <use transform="translate(0.0 0.546875)" xlink:href="#BitstreamVeraSans-Bold-31"/>
       <use transform="translate(69.580078125 0.546875)" xlink:href="#BitstreamVeraSans-Bold-30"/>
       <use transform="translate(139.16015625 53.046875)scale(0.7)" xlink:href="#BitstreamVeraSans-Bold-2d"/>
       <use transform="translate(168.212890625 53.046875)scale(0.7)" xlink:href="#BitstreamVeraSans-Bold-38"/>
      </g>
     </g>
    </g>
    <g id="ytick_9">
     <g id="line2d_56">
      <g>
       <use style="fill:#555753;stroke:#555753;stroke-width:0.5;" x="98.0425531915" xlink:href="#m362ef1c355" y="166.450037045"/>
      </g>
     </g>
     <g id="line2d_57">
      <g>
       <use style="fill:#555753;stroke:#555753;stroke-width:0.5;" x="705.906382979" xlink:href="#m6c5fdd9bd2" y="166.450037045"/>
      </g>
     </g>
     <g id="text_13">
      <!-- $\mathdefault{10^{-7}}$ -->
      <defs>
       <path d="
M6.6875 72.9062
L61.625 72.9062
L61.625 62.3125
L33.2031 0
L14.8906 0
L41.7969 59.0781
L6.6875 59.0781
z
" id="BitstreamVeraSans-Bold-37"/>
      </defs>
      <g style="fill:#555753;" transform="translate(62.2425531915 169.670349545)scale(0.1 -0.1)">
       <use transform="translate(0.0 0.465625)" xlink:href="#BitstreamVeraSans-Bold-31"/>
       <use transform="translate(69.580078125 0.465625)" xlink:href="#BitstreamVeraSans-Bold-30"/>
       <use transform="translate(139.16015625 52.965625)scale(0.7)" xlink:href="#BitstreamVeraSans-Bold-2d"/>
       <use transform="translate(168.212890625 52.965625)scale(0.7)" xlink:href="#BitstreamVeraSans-Bold-37"/>
      </g>
     </g>
    </g>
    <g id="ytick_10">
     <g id="line2d_58">
      <g>
       <use style="fill:#555753;stroke:#555753;stroke-width:0.5;" x="98.0425531915" xlink:href="#m362ef1c355" y="147.321648558"/>
      </g>
     </g>
     <g id="line2d_59">
      <g>
       <use style="fill:#555753;stroke:#555753;stroke-width:0.5;" x="705.906382979" xlink:href="#m6c5fdd9bd2" y="147.321648558"/>
      </g>
     </g>
     <g id="text_14">
      <!-- $\mathdefault{10^{-6}}$ -->
      <defs>
       <path d="
M36.1875 35.9844
Q31.25 35.9844 28.7812 32.7812
Q26.3125 29.5938 26.3125 23.1875
Q26.3125 16.7969 28.7812 13.5938
Q31.25 10.4062 36.1875 10.4062
Q41.1562 10.4062 43.625 13.5938
Q46.0938 16.7969 46.0938 23.1875
Q46.0938 29.5938 43.625 32.7812
Q41.1562 35.9844 36.1875 35.9844
M59.4219 71
L59.4219 57.5156
Q54.7812 59.7188 50.6719 60.7656
Q46.5781 61.8125 42.6719 61.8125
Q34.2812 61.8125 29.5938 57.1406
Q24.9062 52.4844 24.125 43.3125
Q27.3438 45.7031 31.0938 46.8906
Q34.8594 48.0938 39.3125 48.0938
Q50.4844 48.0938 57.3438 41.5469
Q64.2031 35.0156 64.2031 24.4219
Q64.2031 12.7031 56.5312 5.64062
Q48.875 -1.42188 35.9844 -1.42188
Q21.7812 -1.42188 13.9844 8.17188
Q6.20312 17.7812 6.20312 35.4062
Q6.20312 53.4688 15.3125 63.7969
Q24.4219 74.125 40.2812 74.125
Q45.3125 74.125 50.0469 73.3438
Q54.7812 72.5625 59.4219 71" id="BitstreamVeraSans-Bold-36"/>
      </defs>
      <g style="fill:#555753;" transform="translate(62.2425531915 150.591961058)scale(0.1 -0.1)">
       <use transform="translate(0.0 0.6125)" xlink:href="#BitstreamVeraSans-Bold-31"/>
       <use transform="translate(69.580078125 0.6125)" xlink:href="#BitstreamVeraSans-Bold-30"/>
       <use transform="translate(139.16015625 53.1125)scale(0.7)" xlink:href="#BitstreamVeraSans-Bold-2d"/>
       <use transform="translate(168.212890625 53.1125)scale(0.7)" xlink:href="#BitstreamVeraSans-Bold-36"/>
      </g>
     </g>
    </g>
    <g id="ytick_11">
     <g id="line2d_60">
      <g>
       <use style="fill:#555753;stroke:#555753;stroke-width:0.5;" x="98.0425531915" xlink:href="#m362ef1c355" y="128.193260072"/>
      </g>
     </g>
     <g id="line2d_61">
      <g>
       <use style="fill:#555753;stroke:#555753;stroke-width:0.5;" x="705.906382979" xlink:href="#m6c5fdd9bd2" y="128.193260072"/>
      </g>
     </g>
     <g id="text_15">
      <!-- $\mathdefault{10^{-5}}$ -->
      <g style="fill:#555753;" transform="translate(62.2425531915 131.413572572)scale(0.1 -0.1)">
       <use transform="translate(0.0 0.465625)" xlink:href="#BitstreamVeraSans-Bold-31"/>
       <use transform="translate(69.580078125 0.465625)" xlink:href="#BitstreamVeraSans-Bold-30"/>
       <use transform="translate(139.16015625 52.965625)scale(0.7)" xlink:href="#BitstreamVeraSans-Bold-2d"/>
       <use transform="translate(168.212890625 52.965625)scale(0.7)" xlink:href="#BitstreamVeraSans-Bold-35"/>
      </g>
     </g>
    </g>
    <g id="ytick_12">
     <g id="line2d_62">
      <g>
       <use style="fill:#555753;stroke:#555753;stroke-width:0.5;" x="98.0425531915" xlink:href="#m362ef1c355" y="109.064871586"/>
      </g>
     </g>
     <g id="line2d_63">
      <g>
       <use style="fill:#555753;stroke:#555753;stroke-width:0.5;" x="705.906382979" xlink:href="#m6c5fdd9bd2" y="109.064871586"/>
      </g>
     </g>
     <g id="text_16">
      <!-- $\mathdefault{10^{-4}}$ -->
      <g style="fill:#555753;" transform="translate(62.2425531915 112.285184086)scale(0.1 -0.1)">
       <use transform="translate(0.0 0.465625)" xlink:href="#BitstreamVeraSans-Bold-31"/>
       <use transform="translate(69.580078125 0.465625)" xlink:href="#BitstreamVeraSans-Bold-30"/>
       <use transform="translate(139.16015625 52.965625)scale(0.7)" xlink:href="#BitstreamVeraSans-Bold-2d"/>
       <use transform="translate(168.212890625 52.965625)scale(0.7)" xlink:href="#BitstreamVeraSans-Bold-34"/>
      </g>
     </g>
    </g>
    <g id="ytick_13">
     <g id="line2d_64">
      <g>
       <use style="fill:#555753;stroke:#555753;stroke-width:0.5;" x="98.0425531915" xlink:href="#m362ef1c355" y="89.9364831003"/>
      </g>
     </g>
     <g id="line2d_65">
      <g>
       <use style="fill:#555753;stroke:#555753;stroke-width:0.5;" x="705.906382979" xlink:href="#m6c5fdd9bd2" y="89.9364831003"/>
      </g>
     </g>
     <g id="text_17">
      <!-- $\mathdefault{10^{-3}}$ -->
      <g style="fill:#555753;" transform="translate(62.2425531915 93.2067956003)scale(0.1 -0.1)">
       <use transform="translate(0.0 0.546875)" xlink:href="#BitstreamVeraSans-Bold-31"/>
       <use transform="translate(69.580078125 0.546875)" xlink:href="#BitstreamVeraSans-Bold-30"/>
       <use transform="translate(139.16015625 53.046875)scale(0.7)" xlink:href="#BitstreamVeraSans-Bold-2d"/>
       <use transform="translate(168.212890625 53.046875)scale(0.7)" xlink:href="#BitstreamVeraSans-Bold-33"/>
      </g>
     </g>
    </g>
    <g id="ytick_14">
     <g id="line2d_66">
      <g>
       <use style="fill:#555753;stroke:#555753;stroke-width:0.5;" x="98.0425531915" xlink:href="#m362ef1c355" y="70.8080946143"/>
      </g>
     </g>
     <g id="line2d_67">
      <g>
       <use style="fill:#555753;stroke:#555753;stroke-width:0.5;" x="705.906382979" xlink:href="#m6c5fdd9bd2" y="70.8080946143"/>
      </g>
     </g>
     <g id="text_18">
      <!-- $\mathdefault{10^{-2}}$ -->
      <g style="fill:#555753;" transform="translate(62.2425531915 74.0784071143)scale(0.1 -0.1)">
       <use transform="translate(0.0 0.546875)" xlink:href="#BitstreamVeraSans-Bold-31"/>
       <use transform="translate(69.580078125 0.546875)" xlink:href="#BitstreamVeraSans-Bold-30"/>
       <use transform="translate(139.16015625 53.046875)scale(0.7)" xlink:href="#BitstreamVeraSans-Bold-2d"/>
       <use transform="translate(168.212890625 53.046875)scale(0.7)" xlink:href="#BitstreamVeraSans-Bold-32"/>
      </g>
     </g>
    </g>
    <g id="ytick_15">
     <g id="line2d_68">
      <g>
       <use style="fill:#555753;stroke:#555753;stroke-width:0.5;" x="98.0425531915" xlink:href="#m362ef1c355" y="51.6797061282"/>
      </g>
     </g>
     <g id="line2d_69">
      <g>
       <use style="fill:#555753;stroke:#555753;stroke-width:0.5;" x="705.906382979" xlink:href="#m6c5fdd9bd2" y="51.6797061282"/>
      </g>
     </g>
     <g id="text_19">
      <!-- $\mathdefault{10^{-1}}$ -->
      <g style="fill:#555753;" transform="translate(62.2425531915 54.9000186282)scale(0.1 -0.1)">
       <use transform="translate(0.0 0.465625)" xlink:href="#BitstreamVeraSans-Bold-31"/>
       <use transform="translate(69.580078125 0.465625)" xlink:href="#BitstreamVeraSans-Bold-30"/>
       <use transform="translate(139.16015625 52.965625)scale(0.7)" xlink:href="#BitstreamVeraSans-Bold-2d"/>
       <use transform="translate(168.212890625 52.965625)scale(0.7)" xlink:href="#BitstreamVeraSans-Bold-31"/>
      </g>
     </g>
    </g>
    <g id="ytick_16">
     <g id="line2d_70">
      <defs>
       <path d="
M0 0
L-4 0" id="mc6a672dd00" style="stroke:#555753;stroke-width:0.5;"/>
      </defs>
      <g>
       <use style="fill:#555753;stroke:#555753;stroke-width:0.5;" x="98.0425531915" xlink:href="#mc6a672dd00" y="319.477144933"/>
      </g>
     </g>
     <g id="line2d_71">
      <defs>
       <path d="
M0 0
L4 0" id="mea87b3074f" style="stroke:#555753;stroke-width:0.5;"/>
      </defs>
      <g>
       <use style="fill:#555753;stroke:#555753;stroke-width:0.5;" x="705.906382979" xlink:href="#mea87b3074f" y="319.477144933"/>
      </g>
     </g>
    </g>
    <g id="ytick_17">
     <g id="line2d_72">
      <g>
       <use style="fill:#555753;stroke:#555753;stroke-width:0.5;" x="98.0425531915" xlink:href="#mc6a672dd00" y="300.348756447"/>
      </g>
     </g>
     <g id="line2d_73">
      <g>
       <use style="fill:#555753;stroke:#555753;stroke-width:0.5;" x="705.906382979" xlink:href="#mea87b3074f" y="300.348756447"/>
      </g>
     </g>
    </g>
    <g id="ytick_18">
     <g id="line2d_74">
      <g>
       <use style="fill:#555753;stroke:#555753;stroke-width:0.5;" x="98.0425531915" xlink:href="#mc6a672dd00" y="281.220367961"/>
      </g>
     </g>
     <g id="line2d_75">
      <g>
       <use style="fill:#555753;stroke:#555753;stroke-width:0.5;" x="705.906382979" xlink:href="#mea87b3074f" y="281.220367961"/>
      </g>
     </g>
    </g>
    <g id="ytick_19">
     <g id="line2d_76">
      <g>
       <use style="fill:#555753;stroke:#555753;stroke-width:0.5;" x="98.0425531915" xlink:href="#mc6a672dd00" y="262.091979475"/>
      </g>
     </g>
     <g id="line2d_77">
      <g>
       <use style="fill:#555753;stroke:#555753;stroke-width:0.5;" x="705.906382979" xlink:href="#mea87b3074f" y="262.091979475"/>
      </g>
     </g>
    </g>
    <g id="ytick_20">
     <g id="line2d_78">
      <g>
       <use style="fill:#555753;stroke:#555753;stroke-width:0.5;" x="98.0425531915" xlink:href="#mc6a672dd00" y="242.963590989"/>
      </g>
     </g>
     <g id="line2d_79">
      <g>
       <use style="fill:#555753;stroke:#555753;stroke-width:0.5;" x="705.906382979" xlink:href="#mea87b3074f" y="242.963590989"/>
      </g>
     </g>
    </g>
    <g id="ytick_21">
     <g id="line2d_80">
      <g>
       <use style="fill:#555753;stroke:#555753;stroke-width:0.5;" x="98.0425531915" xlink:href="#mc6a672dd00" y="223.835202503"/>
      </g>
     </g>
     <g id="line2d_81">
      <g>
       <use style="fill:#555753;stroke:#555753;stroke-width:0.5;" x="705.906382979" xlink:href="#mea87b3074f" y="223.835202503"/>
      </g>
     </g>
    </g>
    <g id="ytick_22">
     <g id="line2d_82">
      <g>
       <use style="fill:#555753;stroke:#555753;stroke-width:0.5;" x="98.0425531915" xlink:href="#mc6a672dd00" y="204.706814017"/>
      </g>
     </g>
     <g id="line2d_83">
      <g>
       <use style="fill:#555753;stroke:#555753;stroke-width:0.5;" x="705.906382979" xlink:href="#mea87b3074f" y="204.706814017"/>
      </g>
     </g>
    </g>
    <g id="ytick_23">
     <g id="line2d_84">
      <g>
       <use style="fill:#555753;stroke:#555753;stroke-width:0.5;" x="98.0425531915" xlink:href="#mc6a672dd00" y="185.578425531"/>
      </g>
     </g>
     <g id="line2d_85">
      <g>
       <use style="fill:#555753;stroke:#555753;stroke-width:0.5;" x="705.906382979" xlink:href="#mea87b3074f" y="185.578425531"/>
      </g>
     </g>
    </g>
    <g id="ytick_24">
     <g id="line2d_86">
      <g>
       <use style="fill:#555753;stroke:#555753;stroke-width:0.5;" x="98.0425531915" xlink:href="#mc6a672dd00" y="166.450037045"/>
      </g>
     </g>
     <g id="line2d_87">
      <g>
       <use style="fill:#555753;stroke:#555753;stroke-width:0.5;" x="705.906382979" xlink:href="#mea87b3074f" y="166.450037045"/>
      </g>
     </g>
    </g>
    <g id="ytick_25">
     <g id="line2d_88">
      <g>
       <use style="fill:#555753;stroke:#555753;stroke-width:0.5;" x="98.0425531915" xlink:href="#mc6a672dd00" y="147.321648558"/>
      </g>
     </g>
     <g id="line2d_89">
      <g>
       <use style="fill:#555753;stroke:#555753;stroke-width:0.5;" x="705.906382979" xlink:href="#mea87b3074f" y="147.321648558"/>
      </g>
     </g>
    </g>
    <g id="ytick_26">
     <g id="line2d_90">
      <g>
       <use style="fill:#555753;stroke:#555753;stroke-width:0.5;" x="98.0425531915" xlink:href="#mc6a672dd00" y="128.193260072"/>
      </g>
     </g>
     <g id="line2d_91">
      <g>
       <use style="fill:#555753;stroke:#555753;stroke-width:0.5;" x="705.906382979" xlink:href="#mea87b3074f" y="128.193260072"/>
      </g>
     </g>
    </g>
    <g id="ytick_27">
     <g id="line2d_92">
      <g>
       <use style="fill:#555753;stroke:#555753;stroke-width:0.5;" x="98.0425531915" xlink:href="#mc6a672dd00" y="109.064871586"/>
      </g>
     </g>
     <g id="line2d_93">
      <g>
       <use style="fill:#555753;stroke:#555753;stroke-width:0.5;" x="705.906382979" xlink:href="#mea87b3074f" y="109.064871586"/>
      </g>
     </g>
    </g>
    <g id="ytick_28">
     <g id="line2d_94">
      <g>
       <use style="fill:#555753;stroke:#555753;stroke-width:0.5;" x="98.0425531915" xlink:href="#mc6a672dd00" y="89.9364831003"/>
      </g>
     </g>
     <g id="line2d_95">
      <g>
       <use style="fill:#555753;stroke:#555753;stroke-width:0.5;" x="705.906382979" xlink:href="#mea87b3074f" y="89.9364831003"/>
      </g>
     </g>
    </g>
    <g id="ytick_29">
     <g id="line2d_96">
      <g>
       <use style="fill:#555753;stroke:#555753;stroke-width:0.5;" x="98.0425531915" xlink:href="#mc6a672dd00" y="70.8080946143"/>
      </g>
     </g>
     <g id="line2d_97">
      <g>
       <use style="fill:#555753;stroke:#555753;stroke-width:0.5;" x="705.906382979" xlink:href="#mea87b3074f" y="70.8080946143"/>
      </g>
     </g>
    </g>
    <g id="ytick_30">
     <g id="line2d_98">
      <g>
       <use style="fill:#555753;stroke:#555753;stroke-width:0.5;" x="98.0425531915" xlink:href="#mc6a672dd00" y="51.6797061282"/>
      </g>
     </g>
     <g id="line2d_99">
      <g>
       <use style="fill:#555753;stroke:#555753;stroke-width:0.5;" x="705.906382979" xlink:href="#mea87b3074f" y="51.6797061282"/>
      </g>
     </g>
    </g>
    <g id="text_20">
     <!-- Counts -->
     <defs>
      <path d="
M51.125 52.9844
L51.125 39.7031
Q45.5156 42.0469 40.2812 43.2188
Q35.0625 44.3906 30.4219 44.3906
Q25.4375 44.3906 23.0156 43.1406
Q20.6094 41.8906 20.6094 39.3125
Q20.6094 37.2031 22.4375 36.0781
Q24.2656 34.9688 29 34.4219
L32.0781 33.9844
Q45.5156 32.2812 50.1406 28.375
Q54.7812 24.4688 54.7812 16.1094
Q54.7812 7.375 48.3281 2.96875
Q41.8906 -1.42188 29.1094 -1.42188
Q23.6875 -1.42188 17.8906 -0.5625
Q12.1094 0.296875 6 2
L6 15.2812
Q11.2344 12.75 16.7188 11.4688
Q22.2188 10.2031 27.875 10.2031
Q33.0156 10.2031 35.5938 11.6094
Q38.1875 13.0312 38.1875 15.8281
Q38.1875 18.1719 36.4062 19.3125
Q34.625 20.4531 29.2969 21.0938
L26.2188 21.4844
Q14.5469 22.9531 9.85938 26.9062
Q5.17188 30.8594 5.17188 38.9219
Q5.17188 47.6094 11.125 51.7969
Q17.0938 56 29.3906 56
Q34.2344 56 39.5469 55.2656
Q44.875 54.5469 51.125 52.9844" id="BitstreamVeraSans-Bold-73"/>
      <path d="
M67 4
Q61.8125 1.3125 56.2031 -0.046875
Q50.5938 -1.42188 44.4844 -1.42188
Q26.2656 -1.42188 15.625 8.76562
Q4.98438 18.9531 4.98438 36.375
Q4.98438 53.8594 15.625 64.0312
Q26.2656 74.2188 44.4844 74.2188
Q50.5938 74.2188 56.2031 72.8438
Q61.8125 71.4844 67 68.7969
L67 53.7188
Q61.7656 57.2812 56.6875 58.9375
Q51.6094 60.5938 46 60.5938
Q35.9375 60.5938 30.1719 54.1406
Q24.4219 47.7031 24.4219 36.375
Q24.4219 25.0938 30.1719 18.6406
Q35.9375 12.2031 46 12.2031
Q51.6094 12.2031 56.6875 13.8594
Q61.7656 15.5312 67 19.0938
z
" id="BitstreamVeraSans-Bold-43"/>
      <path d="
M34.4219 43.5
Q28.6094 43.5 25.5625 39.3281
Q22.5156 35.1562 22.5156 27.2969
Q22.5156 19.4375 25.5625 15.25
Q28.6094 11.0781 34.4219 11.0781
Q40.1406 11.0781 43.1562 15.25
Q46.1875 19.4375 46.1875 27.2969
Q46.1875 35.1562 43.1562 39.3281
Q40.1406 43.5 34.4219 43.5
M34.4219 56
Q48.5312 56 56.4688 48.375
Q64.4062 40.7656 64.4062 27.2969
Q64.4062 13.8125 56.4688 6.1875
Q48.5312 -1.42188 34.4219 -1.42188
Q20.2656 -1.42188 12.2812 6.1875
Q4.29688 13.8125 4.29688 27.2969
Q4.29688 40.7656 12.2812 48.375
Q20.2656 56 34.4219 56" id="BitstreamVeraSans-Bold-6f"/>
      <path d="
M27.4844 70.2188
L27.4844 54.6875
L45.5156 54.6875
L45.5156 42.1875
L27.4844 42.1875
L27.4844 19
Q27.4844 15.1875 29 13.8438
Q30.5156 12.5 35.0156 12.5
L44 12.5
L44 0
L29 0
Q18.6562 0 14.3281 4.3125
Q10.0156 8.64062 10.0156 19
L10.0156 42.1875
L1.3125 42.1875
L1.3125 54.6875
L10.0156 54.6875
L10.0156 70.2188
z
" id="BitstreamVeraSans-Bold-74"/>
     </defs>
     <g style="fill:#555753;" transform="translate(45.2628656915 202.109507979)rotate(-90.0)scale(0.1 -0.1)">
      <use xlink:href="#BitstreamVeraSans-Bold-43"/>
      <use x="73.388671875" xlink:href="#BitstreamVeraSans-Bold-6f"/>
      <use x="142.08984375" xlink:href="#BitstreamVeraSans-Bold-75"/>
      <use x="213.28125" xlink:href="#BitstreamVeraSans-Bold-6e"/>
      <use x="284.47265625" xlink:href="#BitstreamVeraSans-Bold-74"/>
      <use x="332.275390625" xlink:href="#BitstreamVeraSans-Bold-73"/>
     </g>
    </g>
   </g>
   <g id="patch_3">
    <path d="
M98.0426 38.5277
L705.906 38.5277" style="fill:none;stroke:#555753;stroke-width:0.5;"/>
   </g>
   <g id="patch_4">
    <path d="
M705.906 327.485
L705.906 38.5277" style="fill:none;stroke:#555753;stroke-width:0.5;"/>
   </g>
   <g id="patch_5">
    <path d="
M98.0426 327.485
L705.906 327.485" style="fill:none;stroke:#555753;stroke-width:0.5;"/>
   </g>
   <g id="patch_6">
    <path d="
M98.0426 327.485
L98.0426 38.5277" style="fill:none;stroke:#555753;stroke-width:0.5;"/>
   </g>
   <g id="legend_1">
    <g id="patch_7">
     <path d="
M590.464 56.6702
L701.906 56.6702
L701.906 42.5277
L590.464 42.5277
L590.464 56.6702
z
" style="fill:#ffffff;stroke:#555753;"/>
    </g>
    <g id="line2d_100">
     <path d="
M596.064 49.0064
L607.264 49.0064" style="fill:none;stroke:#cc0000;stroke-linecap:square;"/>
    </g>
    <g id="line2d_101"/>
    <g id="text_21">
     <!-- ('Y7', 'L012', '', 'Z') -->
     <defs>
      <path d="
M21.0938 72.9062
L21.0938 45.7969
L9.51562 45.7969
L9.51562 72.9062
z
" id="BitstreamVeraSans-Bold-27"/>
      <path d="
M-0.984375 72.9062
L19.5781 72.9062
L36.1875 46.9219
L52.7812 72.9062
L73.3906 72.9062
L45.6094 30.7188
L45.6094 0
L26.8125 0
L26.8125 30.7188
z
" id="BitstreamVeraSans-Bold-59"/>
      <path d="
M37.7031 -13.1875
L23.1875 -13.1875
Q15.7188 -1.125 12.1562 9.73438
Q8.59375 20.6094 8.59375 31.2969
Q8.59375 42 12.1719 52.9531
Q15.7656 63.9219 23.1875 75.875
L37.7031 75.875
Q31.4531 64.3125 28.3281 53.25
Q25.2031 42.1875 25.2031 31.3906
Q25.2031 20.6094 28.2969 9.51562
Q31.3906 -1.5625 37.7031 -13.1875" id="BitstreamVeraSans-Bold-28"/>
      <path d="
M8.01562 -13.1875
Q14.2656 -1.5625 17.3906 9.51562
Q20.5156 20.6094 20.5156 31.3906
Q20.5156 42.1875 17.3906 53.25
Q14.2656 64.3125 8.01562 75.875
L22.5156 75.875
Q29.9375 63.9219 33.5156 52.9531
Q37.1094 42 37.1094 31.2969
Q37.1094 20.6094 33.5469 9.73438
Q29.9844 -1.125 22.5156 -13.1875
z
" id="BitstreamVeraSans-Bold-29"/>
      <path d="
M9.1875 72.9062
L27.9844 72.9062
L27.9844 14.2031
L60.9844 14.2031
L60.9844 0
L9.1875 0
z
" id="BitstreamVeraSans-Bold-4c"/>
      <path d="
M10.2031 18.8906
L27.7812 18.8906
L27.7812 4
L15.7188 -14.2031
L5.32812 -14.2031
L10.2031 4
z
" id="BitstreamVeraSans-Bold-2c"/>
      <path d="
M5.60938 72.9062
L66.8906 72.9062
L66.8906 61.5312
L27.7812 14.2031
L68.0156 14.2031
L68.0156 0
L4.5 0
L4.5 11.375
L43.6094 58.6875
L5.60938 58.6875
z
" id="BitstreamVeraSans-Bold-5a"/>
     </defs>
     <g style="fill:#555753;" transform="translate(616.063882979 51.8064095745)scale(0.08 -0.08)">
      <use xlink:href="#BitstreamVeraSans-Bold-28"/>
      <use x="45.703125" xlink:href="#BitstreamVeraSans-Bold-27"/>
      <use x="76.318359375" xlink:href="#BitstreamVeraSans-Bold-59"/>
      <use x="148.73046875" xlink:href="#BitstreamVeraSans-Bold-37"/>
      <use x="218.310546875" xlink:href="#BitstreamVeraSans-Bold-27"/>
      <use x="248.92578125" xlink:href="#BitstreamVeraSans-Bold-2c"/>
      <use x="286.9140625" xlink:href="#BitstreamVeraSans-Bold-20"/>
      <use x="321.728515625" xlink:href="#BitstreamVeraSans-Bold-27"/>
      <use x="352.34375" xlink:href="#BitstreamVeraSans-Bold-4c"/>
      <use x="416.064453125" xlink:href="#BitstreamVeraSans-Bold-30"/>
      <use x="485.64453125" xlink:href="#BitstreamVeraSans-Bold-31"/>
      <use x="555.224609375" xlink:href="#BitstreamVeraSans-Bold-32"/>
      <use x="624.8046875" xlink:href="#BitstreamVeraSans-Bold-27"/>
      <use x="655.419921875" xlink:href="#BitstreamVeraSans-Bold-2c"/>
      <use x="693.408203125" xlink:href="#BitstreamVeraSans-Bold-20"/>
      <use x="728.22265625" xlink:href="#BitstreamVeraSans-Bold-27"/>
      <use x="758.837890625" xlink:href="#BitstreamVeraSans-Bold-27"/>
      <use x="789.453125" xlink:href="#BitstreamVeraSans-Bold-2c"/>
      <use x="827.44140625" xlink:href="#BitstreamVeraSans-Bold-20"/>
      <use x="862.255859375" xlink:href="#BitstreamVeraSans-Bold-27"/>
      <use x="892.87109375" xlink:href="#BitstreamVeraSans-Bold-5a"/>
      <use x="965.380859375" xlink:href="#BitstreamVeraSans-Bold-27"/>
      <use x="995.99609375" xlink:href="#BitstreamVeraSans-Bold-29"/>
     </g>
    </g>
   </g>
  </g>
 </g>
 <defs>
  <clipPath id="p9e07894797">
   <rect height="288.957446809" width="607.863829787" x="98.0425531915" y="38.5276595745"/>
  </clipPath>
 </defs>
</svg>
